<mxfile host="app.diagrams.net" modified="2024-01-18T14:46:40.375Z" agent="Mozilla/5.0 (Windows NT 10.0; Win64; x64) AppleWebKit/537.36 (KHTML, like Gecko) Chrome/120.0.0.0 Safari/537.36" etag="GonqWubR9FEEnKcmc1ht" version="22.1.21" type="google">
  <diagram id="C5RBs43oDa-KdzZeNtuy" name="Page-1">
    <mxGraphModel grid="1" page="1" gridSize="10" guides="1" tooltips="1" connect="1" arrows="1" fold="1" pageScale="1" pageWidth="827" pageHeight="1169" math="0" shadow="0">
      <root>
        <mxCell id="WIyWlLk6GJQsqaUBKTNV-0" />
        <mxCell id="WIyWlLk6GJQsqaUBKTNV-1" parent="WIyWlLk6GJQsqaUBKTNV-0" />
        <mxCell id="9celm4hVIHk-8QbSnU9N-41" style="edgeStyle=orthogonalEdgeStyle;rounded=0;orthogonalLoop=1;jettySize=auto;html=1;exitX=0.5;exitY=1;exitDx=0;exitDy=0;strokeColor=#0B4D6A;" edge="1" parent="WIyWlLk6GJQsqaUBKTNV-1" source="9celm4hVIHk-8QbSnU9N-17">
          <mxGeometry relative="1" as="geometry">
            <mxPoint x="185" y="310" as="targetPoint" />
          </mxGeometry>
        </mxCell>
        <mxCell id="9celm4hVIHk-8QbSnU9N-17" value="Creating User" style="rounded=1;whiteSpace=wrap;html=1;fontSize=12;glass=0;strokeWidth=1;shadow=0;labelBackgroundColor=none;fillColor=#09555B;strokeColor=#BAC8D3;fontColor=#EEEEEE;" vertex="1" parent="WIyWlLk6GJQsqaUBKTNV-1">
          <mxGeometry x="90" y="200" width="190" height="40" as="geometry" />
        </mxCell>
        <mxCell id="9celm4hVIHk-8QbSnU9N-18" style="edgeStyle=orthogonalEdgeStyle;rounded=0;orthogonalLoop=1;jettySize=auto;html=1;entryX=0;entryY=0.5;entryDx=0;entryDy=0;strokeColor=#0B4D6A;labelBackgroundColor=none;fontColor=default;" edge="1" parent="WIyWlLk6GJQsqaUBKTNV-1">
          <mxGeometry relative="1" as="geometry">
            <mxPoint x="510" y="510" as="sourcePoint" />
            <mxPoint x="610" y="510" as="targetPoint" />
          </mxGeometry>
        </mxCell>
        <mxCell id="9celm4hVIHk-8QbSnU9N-19" style="edgeStyle=orthogonalEdgeStyle;rounded=0;orthogonalLoop=1;jettySize=auto;html=1;strokeColor=#0B4D6A;labelBackgroundColor=none;fontColor=default;" edge="1" parent="WIyWlLk6GJQsqaUBKTNV-1" source="9celm4hVIHk-8QbSnU9N-20">
          <mxGeometry relative="1" as="geometry">
            <mxPoint x="199" y="450" as="targetPoint" />
          </mxGeometry>
        </mxCell>
        <mxCell id="9celm4hVIHk-8QbSnU9N-20" value="Assigning start and end dates to the user" style="rounded=0;whiteSpace=wrap;html=1;flipH=0;strokeColor=#BAC8D3;fontStyle=1;labelBackgroundColor=none;fillColor=#09555B;fontColor=#EEEEEE;fontFamily=Helvetica;" vertex="1" parent="WIyWlLk6GJQsqaUBKTNV-1">
          <mxGeometry x="104" y="320" width="190" height="80" as="geometry" />
        </mxCell>
        <mxCell id="9celm4hVIHk-8QbSnU9N-22" value="" style="edgeStyle=orthogonalEdgeStyle;rounded=0;orthogonalLoop=1;jettySize=auto;html=1;exitX=0.5;exitY=1;exitDx=0;exitDy=0;strokeColor=#0B4D6A;labelBackgroundColor=none;fontColor=default;" edge="1" parent="WIyWlLk6GJQsqaUBKTNV-1" target="9celm4hVIHk-8QbSnU9N-25">
          <mxGeometry relative="1" as="geometry">
            <mxPoint x="197" y="590" as="targetPoint" />
            <mxPoint x="197" y="510" as="sourcePoint" />
          </mxGeometry>
        </mxCell>
        <mxCell id="9celm4hVIHk-8QbSnU9N-23" style="edgeStyle=orthogonalEdgeStyle;rounded=0;orthogonalLoop=1;jettySize=auto;html=1;exitX=0.5;exitY=1;exitDx=0;exitDy=0;strokeColor=#0B4D6A;labelBackgroundColor=none;fontColor=default;" edge="1" parent="WIyWlLk6GJQsqaUBKTNV-1" source="9celm4hVIHk-8QbSnU9N-25">
          <mxGeometry relative="1" as="geometry">
            <mxPoint x="199" y="630" as="targetPoint" />
          </mxGeometry>
        </mxCell>
        <mxCell id="9celm4hVIHk-8QbSnU9N-24" style="edgeStyle=orthogonalEdgeStyle;rounded=0;orthogonalLoop=1;jettySize=auto;html=1;entryX=0;entryY=0.5;entryDx=0;entryDy=0;strokeColor=#0B4D6A;labelBackgroundColor=none;fontColor=default;" edge="1" parent="WIyWlLk6GJQsqaUBKTNV-1" source="9celm4hVIHk-8QbSnU9N-25">
          <mxGeometry relative="1" as="geometry">
            <mxPoint x="360" y="510" as="targetPoint" />
          </mxGeometry>
        </mxCell>
        <mxCell id="9celm4hVIHk-8QbSnU9N-25" value="Payment Process Beginning" style="rhombus;whiteSpace=wrap;html=1;strokeColor=#BAC8D3;fontColor=#EEEEEE;fillColor=#09555B;labelBackgroundColor=none;" vertex="1" parent="WIyWlLk6GJQsqaUBKTNV-1">
          <mxGeometry x="104" y="450" width="190" height="120" as="geometry" />
        </mxCell>
        <mxCell id="9celm4hVIHk-8QbSnU9N-26" value="&lt;font color=&quot;#1a1a1a&quot;&gt;yes&lt;/font&gt;" style="text;strokeColor=none;align=center;fillColor=none;html=1;verticalAlign=middle;whiteSpace=wrap;rounded=0;fontColor=#EEEEEE;" vertex="1" parent="WIyWlLk6GJQsqaUBKTNV-1">
          <mxGeometry x="290" y="480" width="60" height="30" as="geometry" />
        </mxCell>
        <mxCell id="9celm4hVIHk-8QbSnU9N-27" value="&lt;font color=&quot;#1a1a1a&quot;&gt;no&lt;/font&gt;" style="text;strokeColor=none;align=center;fillColor=none;html=1;verticalAlign=middle;whiteSpace=wrap;rounded=0;fontColor=#EEEEEE;" vertex="1" parent="WIyWlLk6GJQsqaUBKTNV-1">
          <mxGeometry x="190" y="590" width="60" height="30" as="geometry" />
        </mxCell>
        <mxCell id="9celm4hVIHk-8QbSnU9N-28" style="edgeStyle=orthogonalEdgeStyle;rounded=0;orthogonalLoop=1;jettySize=auto;html=1;strokeColor=#0B4D6A;" edge="1" parent="WIyWlLk6GJQsqaUBKTNV-1">
          <mxGeometry relative="1" as="geometry">
            <mxPoint x="195" y="980" as="targetPoint" />
            <mxPoint x="195" y="900" as="sourcePoint" />
          </mxGeometry>
        </mxCell>
        <mxCell id="9celm4hVIHk-8QbSnU9N-29" value="&lt;div&gt;Terminate Membership&amp;nbsp;&lt;/div&gt;&lt;div&gt;&lt;span style=&quot;background-color: initial;&quot;&gt;&amp;nbsp;(To inform)&lt;/span&gt;&lt;/div&gt;" style="rounded=0;whiteSpace=wrap;html=1;strokeColor=#BAC8D3;fontColor=#EEEEEE;fillColor=#09555B;" vertex="1" parent="WIyWlLk6GJQsqaUBKTNV-1">
          <mxGeometry x="90" y="980" width="190" height="60" as="geometry" />
        </mxCell>
        <mxCell id="9celm4hVIHk-8QbSnU9N-30" value="&lt;div style=&quot;border-color: var(--border-color);&quot;&gt;Payment Failed&lt;/div&gt;&lt;div style=&quot;border-color: var(--border-color);&quot;&gt;&amp;nbsp; (Trial 2)&lt;/div&gt;" style="rounded=0;whiteSpace=wrap;html=1;strokeColor=#BAC8D3;fontColor=#EEEEEE;fillColor=#09555B;" vertex="1" parent="WIyWlLk6GJQsqaUBKTNV-1">
          <mxGeometry x="90" y="850" width="190" height="60" as="geometry" />
        </mxCell>
        <mxCell id="9celm4hVIHk-8QbSnU9N-31" style="edgeStyle=orthogonalEdgeStyle;rounded=0;orthogonalLoop=1;jettySize=auto;html=1;entryX=0.5;entryY=0;entryDx=0;entryDy=0;strokeColor=#0B4D6A;" edge="1" parent="WIyWlLk6GJQsqaUBKTNV-1" source="9celm4hVIHk-8QbSnU9N-32" target="9celm4hVIHk-8QbSnU9N-30">
          <mxGeometry relative="1" as="geometry" />
        </mxCell>
        <mxCell id="9celm4hVIHk-8QbSnU9N-32" value="&lt;div style=&quot;border-color: var(--border-color);&quot;&gt;Payment Failed&lt;/div&gt;&lt;div style=&quot;border-color: var(--border-color);&quot;&gt;&amp;nbsp; (Trial 1)&lt;br&gt;&lt;/div&gt;" style="rounded=0;whiteSpace=wrap;html=1;strokeColor=#BAC8D3;fontColor=#EEEEEE;fillColor=#09555B;" vertex="1" parent="WIyWlLk6GJQsqaUBKTNV-1">
          <mxGeometry x="90" y="735" width="190" height="60" as="geometry" />
        </mxCell>
        <mxCell id="9celm4hVIHk-8QbSnU9N-33" style="edgeStyle=orthogonalEdgeStyle;rounded=0;orthogonalLoop=1;jettySize=auto;html=1;exitX=0.5;exitY=1;exitDx=0;exitDy=0;entryX=0.549;entryY=0.013;entryDx=0;entryDy=0;entryPerimeter=0;strokeColor=#0B4D6A;" edge="1" parent="WIyWlLk6GJQsqaUBKTNV-1" target="9celm4hVIHk-8QbSnU9N-32">
          <mxGeometry relative="1" as="geometry">
            <mxPoint x="195" y="690" as="sourcePoint" />
          </mxGeometry>
        </mxCell>
        <mxCell id="9celm4hVIHk-8QbSnU9N-34" value="&lt;div style=&quot;border-color: var(--border-color);&quot;&gt;Payment Failed&lt;br&gt;&lt;/div&gt;" style="rounded=0;whiteSpace=wrap;html=1;strokeColor=#BAC8D3;fontColor=#EEEEEE;fillColor=#09555B;" vertex="1" parent="WIyWlLk6GJQsqaUBKTNV-1">
          <mxGeometry x="90" y="630" width="190" height="60" as="geometry" />
        </mxCell>
        <mxCell id="9celm4hVIHk-8QbSnU9N-35" value="&lt;div style=&quot;border-color: var(--border-color);&quot;&gt;Payment Successful&lt;br&gt;&lt;/div&gt;" style="rounded=0;whiteSpace=wrap;html=1;strokeColor=#BAC8D3;fontColor=#EEEEEE;fillColor=#09555B;" vertex="1" parent="WIyWlLk6GJQsqaUBKTNV-1">
          <mxGeometry x="360" y="480" width="190" height="60" as="geometry" />
        </mxCell>
        <mxCell id="9celm4hVIHk-8QbSnU9N-36" style="edgeStyle=orthogonalEdgeStyle;rounded=0;orthogonalLoop=1;jettySize=auto;html=1;strokeColor=#0B4D6A;" edge="1" parent="WIyWlLk6GJQsqaUBKTNV-1" source="9celm4hVIHk-8QbSnU9N-37">
          <mxGeometry relative="1" as="geometry">
            <mxPoint x="702" y="650" as="targetPoint" />
          </mxGeometry>
        </mxCell>
        <mxCell id="9celm4hVIHk-8QbSnU9N-37" value="&lt;div style=&quot;border-color: var(--border-color);&quot;&gt;Membership Dates Are Updating&lt;br&gt;&lt;/div&gt;" style="rounded=0;whiteSpace=wrap;html=1;strokeColor=#BAC8D3;fontColor=#EEEEEE;fillColor=#09555B;" vertex="1" parent="WIyWlLk6GJQsqaUBKTNV-1">
          <mxGeometry x="607" y="480" width="190" height="60" as="geometry" />
        </mxCell>
        <mxCell id="9celm4hVIHk-8QbSnU9N-38" value="STOP" style="ellipse;whiteSpace=wrap;html=1;strokeColor=#BAC8D3;fontColor=#EEEEEE;fillColor=#09555B;" vertex="1" parent="WIyWlLk6GJQsqaUBKTNV-1">
          <mxGeometry x="642" y="650" width="120" height="80" as="geometry" />
        </mxCell>
        <mxCell id="9celm4hVIHk-8QbSnU9N-40" style="edgeStyle=orthogonalEdgeStyle;rounded=0;orthogonalLoop=1;jettySize=auto;html=1;strokeColor=#0B4D6A;" edge="1" parent="WIyWlLk6GJQsqaUBKTNV-1" source="9celm4hVIHk-8QbSnU9N-39">
          <mxGeometry relative="1" as="geometry">
            <mxPoint x="185" y="200" as="targetPoint" />
          </mxGeometry>
        </mxCell>
        <mxCell id="9celm4hVIHk-8QbSnU9N-39" value="START" style="ellipse;whiteSpace=wrap;html=1;strokeColor=#BAC8D3;fontColor=#EEEEEE;fillColor=#09555B;" vertex="1" parent="WIyWlLk6GJQsqaUBKTNV-1">
          <mxGeometry x="125" y="60" width="120" height="80" as="geometry" />
        </mxCell>
        <mxCell id="9celm4hVIHk-8QbSnU9N-42" style="edgeStyle=orthogonalEdgeStyle;rounded=0;orthogonalLoop=1;jettySize=auto;html=1;exitX=1;exitY=0.5;exitDx=0;exitDy=0;entryX=0.567;entryY=1;entryDx=0;entryDy=0;entryPerimeter=0;strokeColor=#0B4D6A;" edge="1" parent="WIyWlLk6GJQsqaUBKTNV-1" source="9celm4hVIHk-8QbSnU9N-29" target="9celm4hVIHk-8QbSnU9N-38">
          <mxGeometry relative="1" as="geometry" />
        </mxCell>
      </root>
    </mxGraphModel>
  </diagram>
</mxfile>
